<?xml version="1.0" standalone="no"?>
<!DOCTYPE svg PUBLIC "-//W3C//DTD SVG 20010904//EN"
 "http://www.w3.org/TR/2001/REC-SVG-20010904/DTD/svg10.dtd">
<svg version="1.0" xmlns="http://www.w3.org/2000/svg"
 width="220.000000pt" height="220.000000pt" viewBox="0 0 220.000000 220.000000"
 preserveAspectRatio="xMidYMid meet">
<metadata>
Created by potrace 1.11, written by Peter Selinger 2001-2013
</metadata>
<g transform="translate(0.000000,220.000000) scale(0.100000,-0.100000)"
fill="#000000" stroke="none">
<path d="M994 1855 c-7 -5 -74 -163 -149 -349 -74 -187 -139 -343 -144 -346
-10 -6 -71 -132 -111 -230 -12 -30 -31 -75 -42 -100 -39 -89 -47 -105 -139
-325 -46 -109 -57 -181 -30 -194 9 -4 62 -7 119 -7 122 1 107 -14 181 176 12
30 26 64 30 75 4 11 22 50 39 88 l32 67 299 0 c255 0 300 2 311 15 7 9 10 19
6 23 -10 10 -627 15 -637 5 -4 -4 76 -7 179 -5 103 1 241 -1 307 -6 107 -8 89
-9 -172 -11 -199 -1 -293 -4 -293 -12 0 -5 -4 -8 -9 -4 -5 3 -12 1 -16 -5 -7
-12 -25 -4 -25 11 0 6 5 7 12 3 7 -5 9 -2 5 8 -13 35 11 38 340 38 293 0 357
5 307 24 -25 10 -620 7 -647 -3 -17 -7 -30 -27 -47 -73 -13 -35 -38 -97 -56
-138 -17 -41 -42 -101 -54 -133 -27 -68 -59 -90 -120 -83 -22 3 -42 2 -44 -3
-7 -11 7 -28 29 -34 12 -3 5 -5 -17 -6 -29 -1 -36 2 -32 14 4 9 0 15 -10 15
-9 0 -13 6 -10 15 3 8 9 14 12 13 27 -3 43 6 48 27 3 14 10 25 16 25 5 0 7 4
4 8 -5 9 17 80 38 122 8 14 27 61 44 105 111 294 249 653 278 725 19 47 43
105 54 130 10 25 39 99 65 165 70 178 60 168 166 163 63 -3 86 -1 79 6 -14 14
-179 14 -196 1z m-397 -1520 c-5 -11 -20 -15 -64 -13 -46 1 -50 2 -19 5 22 3
49 11 60 18 23 17 31 13 23 -10z"/>
<path d="M1057 1574 c-12 -12 -8 -46 4 -38 6 3 4 -4 -4 -17 -8 -13 -30 -61
-47 -106 -18 -46 -36 -81 -40 -78 -8 5 -91 -167 -139 -291 -23 -57 -31 -92
-28 -120 l4 -39 263 -3 c273 -2 290 0 290 39 0 20 -34 27 -45 9 -3 -5 3 -10
14 -10 12 0 21 -4 21 -10 0 -6 -94 -10 -262 -9 -156 0 -255 4 -243 9 20 8 7
15 -22 11 -9 -1 -10 6 -1 31 6 18 13 27 16 20 8 -24 32 -11 48 26 9 20 33 87
54 147 100 286 121 337 137 331 7 -3 13 0 13 7 0 7 2 21 5 32 6 22 -26 71 -38
59z"/>
<path d="M1272 964 c-11 -12 -47 -15 -209 -14 -107 1 -198 -1 -201 -5 -18 -18
41 -25 211 -25 195 0 227 6 227 40 0 24 -10 25 -28 4z"/>
<path d="M1738 387 c-13 -13 -35 -17 -95 -17 -71 -1 -76 -2 -59 -15 19 -15 19
-15 -3 -15 -12 0 -29 -6 -36 -14 -22 -22 1 -26 134 -26 124 0 161 11 148 44
-7 18 -32 22 -42 6 -3 -5 1 -10 9 -10 9 0 16 -4 16 -10 0 -6 -47 -9 -122 -9
l-123 2 90 9 c50 5 94 13 98 17 5 5 7 19 5 32 -3 21 -4 22 -20 6z"/>
</g>
</svg>
